<?xml version="1.0" encoding="utf-8"?>
<!-- Generator: Adobe Illustrator 22.1.0, SVG Export Plug-In . SVG Version: 6.00 Build 0)  -->
<svg version="1.1" id="_x34_" xmlns="http://www.w3.org/2000/svg" xmlns:xlink="http://www.w3.org/1999/xlink" x="0px" y="0px"
	 viewBox="0 0 176.38141 128.7924" enable-background="new 0 0 176.38141 128.7924" xml:space="preserve">
<g>
	<path fill="#FFFFFF" d="M149.13622,52.82674c-3.02808,10.72123,25.73152,33.55126,27.24519,34.75284
		C79.75643,118.46704,7.59429,100.24561,3.79628,99.28659c-1.30606-1.75587-26.12129-35.11734,70.50368-66.00481
		C76.77038,34.18717,123.7084,51.38953,149.13622,52.82674z"/>
	<path fill="#B5BFE5" d="M74.36857,48.9876c9.07035,1.20181,18.14562,2.36597,27.22168,3.52329
		c3.07726,0.3924,6.18291,0.8696,9.29978,1.30831c-0.50772-0.8665-1.00085-1.73694-1.46261-2.61697
		c-17.99154-5.15204-33.72517-10.9164-35.12743-11.43032c-6.89088,2.20272-13.15373,4.41806-18.86163,6.63354
		C61.74617,47.28259,68.05518,48.15113,74.36857,48.9876z"/>
	<path fill="#B5BFE5" d="M38.76062,63.90936c6.72813-4.56679,14.19539-8.00028,21.67646-11.13928
		c4.14153-1.73772,8.33918-3.26228,12.57461-4.68217c-9.34271-1.24395-18.6778-2.54324-28.0112-3.85508
		C20.15832,55.22584,8.44569,66.02516,3.39445,75.112c5.07161,0.59914,10.14429,1.17636,15.21942,1.70811
		C25.99824,73.52442,32.11694,68.41876,38.76062,63.90936z"/>
	<path fill="#233A8E" d="M0.30744,83.63567c0.24347-1.66455,0.67145-3.30078,1.21979-4.89941
		c0.6123-1.57275,1.30682-3.12183,2.17084-4.5769c1.68567-2.93701,3.83307-5.58521,6.17444-8.01587
		c2.37793-2.40088,4.95392-4.59301,7.65686-6.60449c2.68878-2.03564,5.56915-3.79199,8.46503-5.49634
		c-1.38336,0.95703-2.80859,1.84766-4.15247,2.8562l-2.04987,1.45996l-1.99377,1.53369
		c-2.63208,2.073-5.19013,4.24463-7.51245,6.65307c-2.35345,2.37451-4.46423,4.99146-6.2077,7.8396
		C2.32832,77.22649,0.98572,80.3366,0.30744,83.63567z"/>
	<path fill="#233A8E" d="M121.70838,48.0141c4.53052,1.03833,9.08129,1.98145,13.6502,2.80151
		c4.573,0.78491,9.1687,1.48047,13.79303,1.73657l0.33392,0.01855l-0.08472,0.33081
		c-0.17773,0.69409-0.22711,1.41724-0.18604,2.1416c0.07721,0.72266,0.19635,1.44604,0.42126,2.14868
		c0.40796,1.41528,1.0509,2.76685,1.77954,4.06396c1.4696,2.59546,3.28448,4.99609,5.20776,7.29223
		c1.91431,2.30786,3.95337,4.51587,6.06311,6.65405c2.10236,2.146,4.25775,4.24365,6.47168,6.27979
		c-4.56647-3.91333-8.96027-8.05273-12.90527-12.62085c-1.95282-2.29663-3.79767-4.70435-5.31226-7.33618
		c-0.75061-1.31714-1.42004-2.69556-1.85657-4.17041c-0.23657-0.73096-0.35522-1.50049-0.43256-2.27148
		c-0.03992-0.77783,0.01727-1.56616,0.22003-2.33081l0.24908,0.34912c-4.65717-0.29907-9.27234-0.98584-13.83551-1.89087
		C130.71655,50.32562,126.19758,49.21746,121.70838,48.0141z"/>
	<path fill="#233A8E" d="M33.07252,56.49749c6.49835-3.59717,13.26318-6.71094,20.15326-9.49316
		c6.89673-2.77002,13.90796-5.24927,20.99438-7.48193l0.08612-0.0271l0.08386,0.03076
		c4.10181,1.50122,8.22052,2.96411,12.34808,4.3999c4.13373,1.41821,8.26526,2.84717,12.41992,4.20923
		c-4.19269-1.23877-8.38263-2.49463-12.53516-3.86621c-4.15979-1.34985-8.3017-2.75439-12.41302-4.25122l0.16962,0.00366
		c-7.05219,2.30444-14.06635,4.72974-20.96918,7.44702c-3.44916,1.36279-6.88586,2.76025-10.27411,4.27124
		C39.74744,53.24774,36.37696,54.8034,33.07252,56.49749z"/>
	<path fill="#B5BFE5" d="M64.13353,101.10598c-30.29589,0-50.95155-4.13092-57.61328-5.67533
		C5.20986,93.12047,3.2108,88.1338,5.31107,81.59738C8.81544,70.68906,23.64155,54.2982,74.21342,37.91805
		c8.81181,3.18092,46.38313,16.3673,70.5785,18.94845c1.77789,9.25253,12.83508,20.54856,22.53314,28.91535
		C133.07498,95.95438,98.40076,101.10598,64.13353,101.10598z"/>
	<path fill="#5A6FBD" d="M167.3262,85.77656c-1.74374,0.51543-3.47659,1.01994-5.22041,1.51348
		c-8.10472-7.61125-15.85857-16.60439-17.31723-24.22663c-24.19369-2.57727-61.76742-15.77088-70.57407-18.9514
		C23.64456,60.49705,8.81692,76.88209,5.30739,87.79449c-0.28516,0.87737-0.48256,1.72186-0.62514,2.53342
		c-0.44963-2.39085-0.4606-5.35201,0.62514-8.72987c3.50953-10.91241,18.33717-27.29745,68.9071-43.68248
		c8.80665,3.18045,46.38038,16.37406,70.57407,18.95133C146.56525,66.12325,157.63121,77.41954,167.3262,85.77656z"/>
	<path fill="#5A6FBD" d="M144.78859,56.86692c-24.1937-2.57729-61.76745-15.77091-70.5741-18.95136
		c-0.02714,0.00881-0.05336,0.01755-0.07965,0.02636v6.19645c0.02629-0.00881,0.05251-0.01755,0.07965-0.02636
		c8.80666,3.18052,45.59312,16.28706,69.78681,18.86435c2.28825,7.80224,9.99974,16.70243,18.10448,24.31369
		c1.74385-0.49355,3.47672-0.99809,5.22041-1.5135C157.6312,77.41954,146.56522,66.12321,144.78859,56.86692z"/>
	<path fill="#B5BFE5" d="M162.10579,87.29004c-32.55072,9.17957-65.45239,13.81868-97.97018,13.81868
		c-30.30245,0-50.95375-4.13467-57.61087-5.68102c-0.63612-1.1077-1.42573-2.85152-1.84249-5.09978
		c0.14258-0.81156,0.33998-1.65606,0.62514-2.53342c3.50953-10.91241,18.33717-27.29744,68.9071-43.68248
		c8.80665,3.18052,45.5931,16.28708,69.7868,18.86435C145.45996,70.59859,154.00107,79.67879,162.10579,87.29004z"/>
	<path fill="#B5BFE5" d="M176.38141,87.57958c0,0-87.93148,30.31996-172.58513,11.70701
		c-4.42079-6.09758-3.7455-13.47206-3.7455-13.47206l-0.00001,19.67821c1.23107-0.11501,1.63872,11.0194,3.61629,16.67309
		c0,0,76.50361,20.97405,172.58516-11.707L176.38141,87.57958z"/>
	<path fill="#5A6FBD" d="M59.02123,105.30417c-17.92075-0.20852-36.6475-1.93292-55.22498-6.01759
		c-2.89369-3.99128-3.60009-8.51687-3.74548-11.17601v17.38216c0,0,1.63872,11.01937,3.61629,16.67307
		c0,0,21.22825,5.80793,55.35417,6.53602V105.30417z"/>
	<path fill="#5A6FBD" d="M60.4835,105.31428v23.41152c0.60861,0.0103,1.21139,0.02295,1.8279,0.02992v-23.42879
		C61.70399,105.32606,61.09285,105.31856,60.4835,105.31428z"/>
	<path fill="#5A6FBD" d="M68.16056,105.28088v23.49091c15.43585-0.09908,33.07485-1.28764,52.27714-4.40356v-23.741
		C104.93317,103.07591,87.10767,104.97175,68.16056,105.28088z"/>
	<path fill="#5A6FBD" d="M125.00733,99.87993v23.71757c2.41481-0.42533,4.85131-0.87938,7.3115-1.36783V98.57563
		C129.95563,99.02003,127.51151,99.45547,125.00733,99.87993z"/>
	<path fill="#5A6FBD" d="M147.67296,95.38721v23.43073c0.85199-0.20998,1.70271-0.41769,2.55899-0.63578V94.79721
		C149.39917,94.99274,148.53894,95.18987,147.67296,95.38721z"/>
	<path fill="#5A6FBD" d="M152.24265,94.3204v23.33816c0.73091-0.19077,1.45953-0.3772,2.19345-0.574V93.78931
		C153.72528,93.96442,152.98293,94.14255,152.24265,94.3204z"/>
	<g>
		<g>
			<path fill="#FFFFFF" d="M174.4859,88.20232l-10.26758,2.89038l-5.13556,1.4458l-2.56818,0.7229l-2.59485,0.61743
				l-10.39685,2.40479c-1.73651,0.38354-3.45862,0.8374-5.20715,1.16357l-5.24365,0.9895l-10.4901,1.96973l-10.55933,1.56299
				c-1.76117,0.25146-3.51758,0.5415-5.2829,0.76147l-5.30646,0.57788l-5.30695,0.57788
				c-1.76953,0.18726-3.53589,0.41211-5.31348,0.50952l-10.65485,0.69141c-3.55359,0.18555-7.11426,0.22583-10.67053,0.3457
				c-3.55634,0.15967-7.1167,0.03589-10.67474,0.03955c-3.55933,0.02637-7.11462-0.14966-10.67004-0.29419
				c-7.11206-0.26611-14.20532-0.90527-21.27704-1.68677c-7.05127-0.94702-14.09161-2.052-20.99762-3.75952
				c6.93616,1.5769,13.98853,2.54712,21.04437,3.35962c7.06738,0.7229,14.15106,1.32349,21.25311,1.54004
				c3.55023,0.12134,7.09937,0.27417,10.65259,0.22461c3.55182-0.02686,7.1048,0.07373,10.65393-0.10889
				c3.54889-0.14282,7.10132-0.20581,10.64636-0.41406l10.62787-0.75562c1.77454-0.08569,3.53827-0.29858,5.3053-0.47412
				l5.29993-0.54272l5.30042-0.54248c1.76355-0.20825,3.51843-0.48633,5.27814-0.72583l10.55255-1.49243l10.48754-1.89941
				l5.24365-0.95435c1.74872-0.31445,3.47125-0.75659,5.20825-1.12866l10.40338-2.32788l2.60455-0.56836l2.57855-0.67407
				l5.15796-1.34814L174.4859,88.20232z"/>
		</g>
	</g>
	<g>
		
			<ellipse transform="matrix(0.11062 -0.99386 0.99386 0.11062 -12.2113 130.6674)" opacity="0" fill="#B6C5E3" cx="66.90368" cy="72.15666" rx="20.95327" ry="52.7815"/>
		
			<ellipse transform="matrix(0.1106 -0.99387 0.99387 0.1106 -12.22352 130.68201)" opacity="0.01639" fill="#B6C5E3" cx="66.90357" cy="72.17059" rx="20.68523" ry="52.14571"/>
		
			<ellipse transform="matrix(0.11057 -0.99387 0.99387 0.11057 -12.2357 130.69667)" opacity="0.03279" fill="#B6C5E3" cx="66.90347" cy="72.18452" rx="20.41719" ry="51.50993"/>
		
			<ellipse transform="matrix(0.11054 -0.99387 0.99387 0.11054 -12.24784 130.7114)" opacity="0.04918" fill="#B6C5E3" cx="66.90337" cy="72.19845" rx="20.14915" ry="50.87415"/>
		
			<ellipse transform="matrix(0.1105 -0.99388 0.99388 0.1105 -12.25993 130.72617)" opacity="0.06557" fill="#B6C5E3" cx="66.90326" cy="72.21238" rx="19.8811" ry="50.23837"/>
		
			<ellipse transform="matrix(0.11047 -0.99388 0.99388 0.11047 -12.27199 130.74101)" opacity="0.08197" fill="#B6C5E3" cx="66.90315" cy="72.22631" rx="19.61306" ry="49.60258"/>
		
			<ellipse transform="matrix(0.11044 -0.99388 0.99388 0.11044 -12.28399 130.75591)" opacity="0.09836" fill="#B6C5E3" cx="66.90305" cy="72.24024" rx="19.34502" ry="48.9668"/>
		
			<ellipse transform="matrix(0.11041 -0.99389 0.99389 0.11041 -12.29595 130.77087)" opacity="0.11475" fill="#B6C5E3" cx="66.90295" cy="72.25417" rx="19.07697" ry="48.33102"/>
		
			<ellipse transform="matrix(0.11037 -0.99389 0.99389 0.11037 -12.30786 130.7859)" opacity="0.13115" fill="#B6C5E3" cx="66.90284" cy="72.2681" rx="18.80893" ry="47.69524"/>
		
			<ellipse transform="matrix(0.11034 -0.99389 0.99389 0.11034 -12.31971 130.80101)" opacity="0.14754" fill="#B6C5E3" cx="66.90273" cy="72.28203" rx="18.54089" ry="47.05946"/>
		
			<ellipse transform="matrix(0.1103 -0.9939 0.9939 0.1103 -12.33152 130.81619)" opacity="0.16393" fill="#B6C5E3" cx="66.90263" cy="72.29596" rx="18.27284" ry="46.42367"/>
		
			<ellipse transform="matrix(0.11026 -0.9939 0.9939 0.11026 -12.34327 130.83145)" opacity="0.18033" fill="#B6C5E3" cx="66.90253" cy="72.30989" rx="18.0048" ry="45.78789"/>
		
			<ellipse transform="matrix(0.11022 -0.99391 0.99391 0.11022 -12.35496 130.84679)" opacity="0.19672" fill="#B6C5E3" cx="66.90242" cy="72.32382" rx="17.73676" ry="45.15211"/>
		
			<ellipse transform="matrix(0.11018 -0.99391 0.99391 0.11018 -12.36659 130.8622)" opacity="0.21311" fill="#B6C5E3" cx="66.90231" cy="72.33775" rx="17.46871" ry="44.51633"/>
		
			<ellipse transform="matrix(0.11014 -0.99392 0.99392 0.11014 -12.37815 130.8777)" opacity="0.22951" fill="#B6C5E3" cx="66.90221" cy="72.35168" rx="17.20067" ry="43.88055"/>
		
			<ellipse transform="matrix(0.1101 -0.99392 0.99392 0.1101 -12.38966 130.8933)" opacity="0.2459" fill="#B6C5E3" cx="66.9021" cy="72.36561" rx="16.93263" ry="43.24476"/>
		
			<ellipse transform="matrix(0.11006 -0.99392 0.99392 0.11006 -12.40109 130.90898)" opacity="0.2623" fill="#B6C5E3" cx="66.902" cy="72.37954" rx="16.66458" ry="42.60898"/>
		
			<ellipse transform="matrix(0.11002 -0.99393 0.99393 0.11002 -12.41245 130.92476)" opacity="0.27869" fill="#B6C5E3" cx="66.90189" cy="72.39347" rx="16.39654" ry="41.9732"/>
		
			<ellipse transform="matrix(0.10997 -0.99393 0.99393 0.10997 -12.42374 130.94064)" opacity="0.29508" fill="#B6C5E3" cx="66.90179" cy="72.4074" rx="16.12849" ry="41.33742"/>
		
			<ellipse transform="matrix(0.10993 -0.99394 0.99394 0.10993 -12.43496 130.95663)" opacity="0.31148" fill="#B6C5E3" cx="66.90168" cy="72.42133" rx="15.86045" ry="40.70164"/>
		
			<ellipse transform="matrix(0.10988 -0.99395 0.99395 0.10988 -12.44609 130.97273)" opacity="0.32787" fill="#B6C5E3" cx="66.90157" cy="72.43526" rx="15.5924" ry="40.06586"/>
		
			<ellipse transform="matrix(0.10983 -0.99395 0.99395 0.10983 -12.45714 130.98895)" opacity="0.34426" fill="#B6C5E3" cx="66.90147" cy="72.44919" rx="15.32436" ry="39.43008"/>
		
			<ellipse transform="matrix(0.10978 -0.99396 0.99396 0.10978 -12.4681 131.00528)" opacity="0.36066" fill="#B6C5E3" cx="66.90137" cy="72.46312" rx="15.05631" ry="38.7943"/>
		
			<ellipse transform="matrix(0.10973 -0.99396 0.99396 0.10973 -12.47897 131.02174)" opacity="0.37705" fill="#B6C5E3" cx="66.90126" cy="72.47705" rx="14.78827" ry="38.15852"/>
		
			<ellipse transform="matrix(0.10967 -0.99397 0.99397 0.10967 -12.48974 131.03833)" opacity="0.39344" fill="#B6C5E3" cx="66.90115" cy="72.49098" rx="14.52022" ry="37.52274"/>
		
			<ellipse transform="matrix(0.10962 -0.99397 0.99397 0.10962 -12.50041 131.05507)" opacity="0.40984" fill="#B6C5E3" cx="66.90105" cy="72.50491" rx="14.25218" ry="36.88696"/>
		
			<ellipse transform="matrix(0.10956 -0.99398 0.99398 0.10956 -12.51098 131.07195)" opacity="0.42623" fill="#B6C5E3" cx="66.90095" cy="72.51884" rx="13.98413" ry="36.25118"/>
		
			<ellipse transform="matrix(0.1095 -0.99399 0.99399 0.1095 -12.52143 131.08896)" opacity="0.44262" fill="#B6C5E3" cx="66.90084" cy="72.53277" rx="13.71609" ry="35.6154"/>
		
			<ellipse transform="matrix(0.10944 -0.99399 0.99399 0.10944 -12.53177 131.10616)" opacity="0.45902" fill="#B6C5E3" cx="66.90073" cy="72.5467" rx="13.44804" ry="34.97962"/>
		
			<ellipse transform="matrix(0.10938 -0.994 0.994 0.10938 -12.54199 131.1235)" opacity="0.47541" fill="#B6C5E3" cx="66.90063" cy="72.56063" rx="13.17999" ry="34.34385"/>
		
			<ellipse transform="matrix(0.10931 -0.99401 0.99401 0.10931 -12.55208 131.14102)" opacity="0.4918" fill="#B6C5E3" cx="66.90052" cy="72.57456" rx="12.91195" ry="33.70807"/>
		
			<ellipse transform="matrix(0.10924 -0.99402 0.99402 0.10924 -12.56203 131.15874)" opacity="0.5082" fill="#B6C5E3" cx="66.90042" cy="72.58849" rx="12.6439" ry="33.07229"/>
		
			<ellipse transform="matrix(0.10917 -0.99402 0.99402 0.10917 -12.57184 131.17665)" opacity="0.52459" fill="#B6C5E3" cx="66.90031" cy="72.60242" rx="12.37585" ry="32.43651"/>
		
			<ellipse transform="matrix(0.1091 -0.99403 0.99403 0.1091 -12.5815 131.19476)" opacity="0.54098" fill="#B6C5E3" cx="66.90021" cy="72.61635" rx="12.10781" ry="31.80073"/>
		
			<ellipse transform="matrix(0.10902 -0.99404 0.99404 0.10902 -12.591 131.21309)" opacity="0.55738" fill="#B6C5E3" cx="66.9001" cy="72.63028" rx="11.83976" ry="31.16496"/>
		
			<ellipse transform="matrix(0.10895 -0.99405 0.99405 0.10895 -12.60033 131.23166)" opacity="0.57377" fill="#B6C5E3" cx="66.89999" cy="72.64421" rx="11.57171" ry="30.52918"/>
		
			<ellipse transform="matrix(0.10887 -0.99406 0.99406 0.10887 -12.60949 131.25046)" opacity="0.59016" fill="#B6C5E3" cx="66.89989" cy="72.65814" rx="11.30366" ry="29.8934"/>
		
			<ellipse transform="matrix(0.10878 -0.99407 0.99407 0.10878 -12.61846 131.26952)" opacity="0.60656" fill="#B6C5E3" cx="66.89979" cy="72.67207" rx="11.03561" ry="29.25763"/>
		
			<ellipse transform="matrix(0.10869 -0.99408 0.99408 0.10869 -12.62722 131.28885)" opacity="0.62295" fill="#B6C5E3" cx="66.89968" cy="72.686" rx="10.76756" ry="28.62185"/>
		
			<ellipse transform="matrix(0.1086 -0.99409 0.99409 0.1086 -12.63578 131.30847)" opacity="0.63934" fill="#B6C5E3" cx="66.89957" cy="72.69993" rx="10.49951" ry="27.98608"/>
		
			<ellipse transform="matrix(0.10851 -0.9941 0.9941 0.10851 -12.64411 131.32838)" opacity="0.65574" fill="#B6C5E3" cx="66.89948" cy="72.71386" rx="10.23146" ry="27.35031"/>
		
			<ellipse transform="matrix(0.10841 -0.99411 0.99411 0.10841 -12.65221 131.34865)" opacity="0.67213" fill="#B6C5E3" cx="66.89937" cy="72.72779" rx="9.96341" ry="26.71453"/>
		
			<ellipse transform="matrix(0.1083 -0.99412 0.99412 0.1083 -12.66004 131.36923)" opacity="0.68852" fill="#B6C5E3" cx="66.89926" cy="72.74172" rx="9.69536" ry="26.07876"/>
		
			<ellipse transform="matrix(0.1082 -0.99413 0.99413 0.1082 -12.66761 131.39021)" opacity="0.70492" fill="#B6C5E3" cx="66.89915" cy="72.75565" rx="9.42731" ry="25.44299"/>
		
			<ellipse transform="matrix(0.10808 -0.99414 0.99414 0.10808 -12.67489 131.41158)" opacity="0.72131" fill="#B6C5E3" cx="66.89905" cy="72.76958" rx="9.15926" ry="24.80721"/>
		
			<ellipse transform="matrix(0.10796 -0.99415 0.99415 0.10796 -12.68186 131.43335)" opacity="0.7377" fill="#B6C5E3" cx="66.89895" cy="72.78351" rx="8.8912" ry="24.17144"/>
		
			<ellipse transform="matrix(0.10784 -0.99417 0.99417 0.10784 -12.68849 131.45558)" opacity="0.7541" fill="#B6C5E3" cx="66.89884" cy="72.79744" rx="8.62315" ry="23.53568"/>
		
			<ellipse transform="matrix(0.10771 -0.99418 0.99418 0.10771 -12.69478 131.4783)" opacity="0.77049" fill="#B6C5E3" cx="66.89874" cy="72.81137" rx="8.3551" ry="22.89991"/>
		
			<ellipse transform="matrix(0.10757 -0.9942 0.9942 0.10757 -12.70067 131.50154)" opacity="0.78689" fill="#B6C5E3" cx="66.89863" cy="72.8253" rx="8.08704" ry="22.26414"/>
		
			<ellipse transform="matrix(0.10743 -0.99421 0.99421 0.10743 -12.70616 131.52534)" opacity="0.80328" fill="#B6C5E3" cx="66.89852" cy="72.83923" rx="7.81899" ry="21.62837"/>
		
			<ellipse transform="matrix(0.10728 -0.99423 0.99423 0.10728 -12.7112 131.54974)" opacity="0.81967" fill="#B6C5E3" cx="66.89842" cy="72.85316" rx="7.55093" ry="20.99261"/>
		
			<ellipse transform="matrix(0.10712 -0.99425 0.99425 0.10712 -12.71577 131.5748)" opacity="0.83607" fill="#B6C5E3" cx="66.89832" cy="72.86709" rx="7.28287" ry="20.35684"/>
		
			<ellipse transform="matrix(0.10695 -0.99426 0.99426 0.10695 -12.71981 131.60056)" opacity="0.85246" fill="#B6C5E3" cx="66.89821" cy="72.88102" rx="7.01481" ry="19.72108"/>
		
			<ellipse transform="matrix(0.10678 -0.99428 0.99428 0.10678 -12.7233 131.62708)" opacity="0.86885" fill="#B6C5E3" cx="66.8981" cy="72.89495" rx="6.74675" ry="19.08531"/>
		
			<ellipse transform="matrix(0.10659 -0.9943 0.9943 0.10659 -12.72617 131.65442)" opacity="0.88525" fill="#B6C5E3" cx="66.89799" cy="72.90888" rx="6.47869" ry="18.44955"/>
		
			<ellipse transform="matrix(0.10639 -0.99432 0.99432 0.10639 -12.72838 131.68266)" opacity="0.90164" fill="#B6C5E3" cx="66.8979" cy="72.92281" rx="6.21063" ry="17.8138"/>
		
			<ellipse transform="matrix(0.10618 -0.99435 0.99435 0.10618 -12.72986 131.7119)" opacity="0.91803" fill="#B6C5E3" cx="66.89779" cy="72.93674" rx="5.94257" ry="17.17804"/>
		
			<ellipse transform="matrix(0.10596 -0.99437 0.99437 0.10596 -12.73055 131.7422)" opacity="0.93443" fill="#B6C5E3" cx="66.89768" cy="72.95067" rx="5.6745" ry="16.54228"/>
		
			<ellipse transform="matrix(0.10572 -0.9944 0.9944 0.10572 -12.73037 131.7737)" opacity="0.95082" fill="#B6C5E3" cx="66.89758" cy="72.9646" rx="5.40643" ry="15.90653"/>
		
			<ellipse transform="matrix(0.10546 -0.99442 0.99442 0.10546 -12.72923 131.80647)" opacity="0.96721" fill="#B6C5E3" cx="66.89747" cy="72.97853" rx="5.13836" ry="15.27078"/>
		
			<ellipse transform="matrix(0.10519 -0.99445 0.99445 0.10519 -12.72703 131.84068)" opacity="0.98361" fill="#B6C5E3" cx="66.89737" cy="72.99246" rx="4.87029" ry="14.63503"/>
		
			<ellipse transform="matrix(0.1049 -0.99448 0.99448 0.1049 -12.72366 131.87645)" fill="#B6C5E3" cx="66.89726" cy="73.00639" rx="4.60222" ry="13.99929"/>
	</g>
	<g>
		<g>
			<g enable-background="new    ">
				<g>
					<polygon fill="#B5BFE5" points="122.51263,15.84883 123.31812,59.77147 84.98765,73.58741 84.18216,29.66477 					"/>
				</g>
				<g>
					<polygon fill="#233A8E" points="84.18216,29.66477 84.98765,73.58741 53.88256,57.73858 53.07708,13.81594 					"/>
				</g>
				<g>
					<polygon fill="#B5BFE5" points="122.51263,15.84883 84.18216,29.66477 53.07708,13.81594 91.40755,0 					"/>
				</g>
			</g>
		</g>
		<path fill="#FFFFFF" d="M61.15798,40.11053c-1.11152-2.27008-1.66691-4.91509-1.25722-7.21434
			c0.46006-2.58195,2.15878-3.92143,4.28141-3.37506c1.88721,0.48577,3.63869,2.18096,4.88367,4.34013
			c1.22014-0.78576,2.90446-0.63565,4.71342,0.76086c2.28951,1.76749,4.12393,5.27886,4.45847,8.5299
			c0.27441,2.6667-0.39941,4.6325-1.613,5.57956l0,0l-6.15292,4.58093c-0.91921,0.68436-2.37031-0.11105-3.25986-1.78689
			l-5.70308-10.74408c-0.09563-0.1713-0.18777-0.34497-0.27687-0.52158l-0.08157-0.15366L61.15798,40.11053z"/>
		<g>
			<path fill="#FFFFFF" d="M104.47961,40.11421l-0.00002,0.00001c-5.62204,2.15716-10.13048,8.56429-10.06987,14.31072
				l0.04859,4.60654l20.35923-7.81178l-0.04859-4.60654C114.70835,40.86673,110.10165,37.95705,104.47961,40.11421z"/>
			
				<ellipse transform="matrix(0.61267 -0.79034 0.79034 0.61267 12.84711 96.05685)" fill="#FFFFFF" cx="104.42484" cy="34.92126" rx="5.11645" ry="3.54577"/>
		</g>
		<path fill="#FFFFFF" d="M94.92774,2.63543c-1.15887-0.43408-2.2688-0.96509-3.354-1.54541l0.1015,0.00659
			c-1.95306,0.67944-3.92029,1.3186-5.89551,1.93506c1.92633-0.75537,3.86072-1.48804,5.8092-2.18042l0.05035-0.01782
			l0.05151,0.02441C92.80262,1.38519,93.88966,1.96185,94.92774,2.63543z"/>
		<path fill="#FFFFFF" d="M89.19617,28.55877c5.38873-2.04053,10.79553-4.03149,16.20367-6.0188l8.10992-2.98706l8.12476-2.94653
			l0.16162-0.05859l0.00305,0.17114c0.13763,7.68408,0.30841,15.36768,0.38269,23.05322
			c-0.26263-7.6814-0.42865-15.36499-0.62787-23.04785l0.16449,0.11255l-8.11542,2.97217l-8.13025,2.9314
			C100.05427,24.69891,94.63422,26.6535,89.19617,28.55877z"/>
		<path fill="#FFFFFF" d="M83.16419,29.14618c-4.55725-2.18311-9.04395-4.50439-13.56836-6.75195
			c-4.47784-2.33862-8.9931-4.604-13.43756-7.0083c4.5575,2.18237,9.04425,4.50366,13.56836,6.75171
			C74.20417,24.47699,78.71943,26.74237,83.16419,29.14618z"/>
		<g enable-background="new    ">
			<g>
				<path fill="#FFFFFF" d="M108.22208,14.0215c1.61748,0.82415,1.31173,2.07943-0.68145,2.79786L88.9806,23.50918
					c-1.99318,0.71843-4.93137,0.63239-6.54885-0.19175l-15.06139-7.67416c-1.61745-0.82414-1.31176-2.07942,0.68142-2.79785
					l18.56004-6.68983c1.99318-0.71843,4.93141-0.63239,6.54887,0.19174L108.22208,14.0215z M86.87854,22.43813l18.56003-6.68983
					c0.56489-0.20361,0.65813-0.55625,0.19319-0.79315L90.57037,7.28099c-0.4584-0.23357-1.29161-0.25796-1.8565-0.05435
					l-18.56004,6.68983c-0.56486,0.2036-0.65159,0.55958-0.19318,0.79315l15.06139,7.67416
					C85.48698,22.62067,86.31367,22.64173,86.87854,22.43813"/>
			</g>
			<g>
				<path fill="#FFFFFF" d="M103.3408,14.53901c0.72031,0.36702,0.58341,0.92909-0.3123,1.25194
					c-0.88767,0.31995-2.20329,0.28144-2.92361-0.08558c-0.7269-0.37037-0.59-0.93244,0.29768-1.25239
					C101.29829,14.13012,102.6139,14.16864,103.3408,14.53901z"/>
			</g>
			<g>
				<path fill="#FFFFFF" d="M94.83082,11.97209c3.58198,1.82511,2.90659,4.59798-1.49939,6.18608
					c-4.40599,1.58811-10.89639,1.39809-14.47837-0.42702c-3.57545-1.82178-2.90004-4.59466,1.50595-6.18276
					C84.76499,9.96029,91.25537,10.15031,94.83082,11.97209z M81.26586,16.86148c2.5015,1.27458,7.0331,1.40724,10.1076,0.29906
					c3.07453-1.10819,3.54605-3.04419,1.04456-4.31877c-2.49497-1.27125-7.02652-1.40393-10.10104-0.29574
					C79.24247,13.65421,78.77089,15.59023,81.26586,16.86148"/>
			</g>
		</g>
	</g>
</g>
</svg>
